<svg width="29" height="29" viewBox="0 0 29 29" fill="none" xmlns="http://www.w3.org/2000/svg">
<path d="M20.5673 0.459961C25.3123 0.459961 28.5 3.78932 28.5 8.74337V20.1765C28.5 25.1306 25.3123 28.46 20.5659 28.46H8.43266C3.68765 28.46 0.5 25.1306 0.5 20.1765V8.74337C0.5 3.78932 3.68765 0.459961 8.43266 0.459961H20.5673ZM22.1112 15.23C20.6105 14.2938 19.4519 15.6086 19.1393 16.029C18.8381 16.435 18.579 16.8829 18.3059 17.3308C17.6386 18.436 16.8742 19.7103 15.5508 20.4515C13.6278 21.5163 12.1679 20.5353 11.1177 19.8216C10.7235 19.5557 10.3406 19.3043 9.95904 19.1367C9.01862 18.7308 8.17253 19.1931 6.91676 20.7881C6.25791 21.6218 5.60469 22.4482 4.94302 23.2717C4.54742 23.7644 4.64175 24.5244 5.17531 24.8538C6.02703 25.3782 7.06599 25.66 8.2401 25.66H20.0389C20.7048 25.66 21.3721 25.5689 22.0085 25.3609C23.4416 24.8928 24.5791 23.8207 25.1732 22.4049C25.6744 21.2143 25.9179 19.7696 25.4491 18.5675C25.2929 18.1687 25.0592 17.7974 24.7312 17.4709C23.871 16.617 23.0671 15.8195 22.1112 15.23ZM9.5984 6.05996C7.6683 6.05996 6.1 7.63038 6.1 9.55996C6.1 11.4895 7.6683 13.06 9.5984 13.06C11.5271 13.06 13.0968 11.4895 13.0968 9.55996C13.0968 7.63038 11.5271 6.05996 9.5984 6.05996Z" fill="black"/>
</svg>
