<svg width="54" height="26" viewBox="0 0 54 26" fill="none" xmlns="http://www.w3.org/2000/svg">
<path d="M4.25195 8.72268C4.25195 4.45756 7.70952 1 11.9746 1V12.1776H4.25195V8.72268Z" fill="#2E9DFB" stroke="#2E9DFB" stroke-width="0.316667"/>
<rect x="4.25146" y="12.1777" width="7.72268" height="2.04486" fill="#2E9DFB" stroke="#2E9DFB" stroke-width="0.316667"/>
<path fill-rule="evenodd" clip-rule="evenodd" d="M4.39181 19.1498C4.29982 18.6732 4.25164 18.181 4.25164 17.6775V14.2227H11.9743V25.4002C10.1042 25.4002 8.38937 24.7355 7.05316 23.6294C5.72009 24.5175 3.58253 25.3617 1 24.8921C1.7113 24.5873 4.45489 22.7582 4.35327 19.1001C4.36559 19.1171 4.37845 19.1336 4.39181 19.1498Z" fill="#2E9DFB"/>
<path d="M4.39181 19.1498L4.26975 19.2507L4.54728 19.1198L4.39181 19.1498ZM4.25164 14.2227V14.0643H4.09331V14.2227H4.25164ZM11.9743 14.2227H12.1327V14.0643H11.9743V14.2227ZM11.9743 25.4002V25.5586H12.1327V25.4002H11.9743ZM7.05316 23.6294L7.15412 23.5075L7.06339 23.4324L6.96537 23.4977L7.05316 23.6294ZM1 24.8921L0.937629 24.7466L0.454135 24.9538L0.971676 25.0479L1 24.8921ZM4.35327 19.1001L4.48132 19.007L4.18081 18.5938L4.195 19.1045L4.35327 19.1001ZM4.09331 17.6775C4.09331 18.1911 4.14246 18.6934 4.23635 19.1798L4.54728 19.1198C4.45718 18.653 4.40997 18.1709 4.40997 17.6775H4.09331ZM4.09331 14.2227V17.6775H4.40997V14.2227H4.09331ZM11.9743 14.0643H4.25164V14.381H11.9743V14.0643ZM12.1327 25.4002V14.2227H11.816V25.4002H12.1327ZM6.9522 23.7514C8.31575 24.8801 10.066 25.5586 11.9743 25.5586V25.2419C10.1424 25.2419 8.46299 24.5909 7.15412 23.5075L6.9522 23.7514ZM0.971676 25.0479C3.60464 25.5266 5.78334 24.6656 7.14094 23.7612L6.96537 23.4977C5.65684 24.3694 3.56042 25.1968 1.02832 24.7364L0.971676 25.0479ZM4.195 19.1045C4.24459 20.8899 3.60077 22.226 2.85784 23.1547C2.1118 24.0873 1.26902 24.6046 0.937629 24.7466L1.06237 25.0377C1.44228 24.8749 2.32694 24.3252 3.10512 23.3525C3.8864 22.3759 4.56356 20.9685 4.51154 19.0957L4.195 19.1045ZM4.51388 19.049C4.50255 19.0353 4.4917 19.0213 4.48132 19.007L4.22522 19.1933C4.23949 19.2129 4.25434 19.232 4.26975 19.2507L4.51388 19.049Z" fill="#2E9DFB"/>
<rect x="11.9741" y="1" width="33.303" height="24.4" fill="#2E9DFB"/>
<path d="M14.5753 17.7002V14.4527L11.9741 9.94499H12.8897L14.9739 13.5479L17.0473 9.94499H17.9629L15.3724 14.4527V17.7002H14.5753ZM20.258 17.8618C19.6908 17.8618 19.1989 17.7361 18.7824 17.4848C18.3695 17.2334 18.0482 16.8798 17.8184 16.4238C17.5886 15.9678 17.4737 15.4329 17.4737 14.8189C17.4737 14.1834 17.5868 13.6341 17.813 13.1709C18.0392 12.7078 18.3569 12.3505 18.7662 12.0992C19.1791 11.8479 19.6656 11.7222 20.2257 11.7222C20.8002 11.7222 21.2903 11.8551 21.696 12.1208C22.1017 12.3829 22.4087 12.7598 22.6169 13.2517C22.8251 13.7436 22.9203 14.3306 22.9023 15.0128H22.0945V14.7328C22.0801 13.9788 21.9168 13.4097 21.6044 13.0255C21.2956 12.6414 20.8433 12.4493 20.2473 12.4493C19.6225 12.4493 19.1432 12.6521 18.8093 13.0578C18.479 13.4636 18.3138 14.0416 18.3138 14.792C18.3138 15.5244 18.479 16.0935 18.8093 16.4992C19.1432 16.9013 19.6154 17.1024 20.2257 17.1024C20.6422 17.1024 21.0048 17.0073 21.3136 16.817C21.626 16.6231 21.8719 16.3448 22.0514 15.9822L22.7892 16.2676C22.5595 16.7739 22.2202 17.167 21.7714 17.4471C21.3262 17.7235 20.8217 17.8618 20.258 17.8618ZM18.0338 15.0128V14.3504H22.4769V15.0128H18.0338ZM26.214 17.8564C25.5319 17.8564 24.97 17.7092 24.5284 17.4148C24.0903 17.1204 23.8211 16.711 23.7205 16.1869L24.5284 16.0522C24.6145 16.3825 24.8102 16.6464 25.1154 16.8439C25.4242 17.0378 25.8047 17.1347 26.2571 17.1347C26.6987 17.1347 27.047 17.0432 27.3019 16.86C27.5568 16.6733 27.6843 16.4202 27.6843 16.1007C27.6843 15.9212 27.643 15.7758 27.5604 15.6645C27.4814 15.5496 27.3181 15.4436 27.0703 15.3467C26.8226 15.2498 26.4528 15.1349 25.9609 15.002C25.4331 14.8584 25.0202 14.7148 24.7222 14.5712C24.4242 14.4276 24.2124 14.2624 24.0867 14.0757C23.9611 13.8854 23.8982 13.6538 23.8982 13.381C23.8982 13.0507 23.9916 12.7616 24.1783 12.5139C24.365 12.2626 24.6235 12.0687 24.9538 11.9323C25.2841 11.7922 25.6683 11.7222 26.1063 11.7222C26.5443 11.7222 26.9357 11.794 27.2804 11.9377C27.6286 12.0777 27.9087 12.2751 28.1205 12.5301C28.3324 12.785 28.458 13.0812 28.4975 13.4187L27.6897 13.5641C27.6358 13.223 27.4653 12.9537 27.1781 12.7563C26.8944 12.5552 26.5336 12.4511 26.0956 12.4439C25.6827 12.4331 25.347 12.5121 25.0885 12.6809C24.8299 12.846 24.7007 13.0668 24.7007 13.3433C24.7007 13.4977 24.7474 13.6305 24.8407 13.7418C24.9341 13.8495 25.1028 13.9518 25.347 14.0488C25.5947 14.1457 25.9466 14.2516 26.4025 14.3665C26.9375 14.503 27.3576 14.6466 27.6628 14.7974C27.9679 14.9482 28.1851 15.1259 28.3144 15.3306C28.4437 15.5352 28.5083 15.7883 28.5083 16.0899C28.5083 16.6392 28.3036 17.0719 27.8943 17.3878C27.4886 17.7002 26.9285 17.8564 26.214 17.8564ZM33.9217 17.8564C33.2395 17.8564 32.6776 17.7092 32.236 17.4148C31.798 17.1204 31.5287 16.711 31.4282 16.1869L32.236 16.0522C32.3222 16.3825 32.5179 16.6464 32.823 16.8439C33.1318 17.0378 33.5124 17.1347 33.9648 17.1347C34.4064 17.1347 34.7547 17.0432 35.0096 16.86C35.2645 16.6733 35.3919 16.4202 35.3919 16.1007C35.3919 15.9212 35.3507 15.7758 35.2681 15.6645C35.1891 15.5496 35.0257 15.4436 34.778 15.3467C34.5303 15.2498 34.1605 15.1349 33.6686 15.002C33.1408 14.8584 32.7279 14.7148 32.4299 14.5712C32.1319 14.4276 31.9201 14.2624 31.7944 14.0757C31.6687 13.8854 31.6059 13.6538 31.6059 13.381C31.6059 13.0507 31.6993 12.7616 31.886 12.5139C32.0727 12.2626 32.3312 12.0687 32.6615 11.9323C32.9918 11.7922 33.376 11.7222 33.814 11.7222C34.252 11.7222 34.6434 11.794 34.988 11.9377C35.3363 12.0777 35.6163 12.2751 35.8282 12.5301C36.04 12.785 36.1657 13.0812 36.2052 13.4187L35.3973 13.5641C35.3435 13.223 35.1729 12.9537 34.8857 12.7563C34.6021 12.5552 34.2412 12.4511 33.8032 12.4439C33.3903 12.4331 33.0546 12.5121 32.7961 12.6809C32.5376 12.846 32.4084 13.0668 32.4084 13.3433C32.4084 13.4977 32.455 13.6305 32.5484 13.7418C32.6417 13.8495 32.8105 13.9518 33.0546 14.0488C33.3024 14.1457 33.6542 14.2516 34.1102 14.3665C34.6452 14.503 35.0652 14.6466 35.3704 14.7974C35.6756 14.9482 35.8928 15.1259 36.0221 15.3306C36.1513 15.5352 36.2159 15.7883 36.2159 16.0899C36.2159 16.6392 36.0113 17.0719 35.602 17.3878C35.1963 17.7002 34.6362 17.8564 33.9217 17.8564ZM37.4642 10.7798V9.89114H38.2559V10.7798H37.4642ZM37.4642 17.7002V11.8838H38.2559V17.7002H37.4642ZM39.8166 17.7002V11.8838H40.5275V13.284L40.3875 13.1009C40.4521 12.9286 40.5365 12.7706 40.6406 12.627C40.7447 12.4798 40.8578 12.3595 40.9799 12.2662C41.1307 12.1333 41.3066 12.0328 41.5077 11.9646C41.7087 11.8928 41.9116 11.8515 42.1162 11.8407C42.3209 11.8263 42.5076 11.8407 42.6763 11.8838V12.627C42.4645 12.5731 42.2329 12.5606 41.9816 12.5893C41.7303 12.618 41.4987 12.7186 41.2869 12.8909C41.093 13.0417 40.9476 13.223 40.8506 13.4348C40.7537 13.6431 40.6891 13.8657 40.6568 14.1026C40.6244 14.336 40.6083 14.5676 40.6083 14.7974V17.7002H39.8166ZM44.1827 17.7002V16.8116H44.9744V17.7002H44.1827ZM44.1827 15.7614V9.94499H44.9744V15.7614H44.1827Z" fill="white"/>
<rect x="11.9741" y="1" width="33.303" height="24.4" stroke="#2E9DFB" stroke-width="0.316667"/>
<path d="M53 8.72268C53 4.45756 49.5424 1 45.2773 1V12.1776H53V8.72268Z" fill="#2E9DFB" stroke="#2E9DFB" stroke-width="0.316667"/>
<rect width="7.72268" height="2.04486" transform="matrix(-1 0 0 1 53 12.1777)" fill="#2E9DFB" stroke="#2E9DFB" stroke-width="0.316667"/>
<path d="M53 17.6772C53 21.9423 49.5424 25.3999 45.2773 25.3999V14.2223H53V17.6772Z" fill="#2E9DFB" stroke="#2E9DFB" stroke-width="0.316667"/>
</svg>
