<svg width="10" height="11" viewBox="0 0 10 11" fill="none" xmlns="http://www.w3.org/2000/svg">
<path d="M6.0229 0.83166L3.94888 0.82666H3.94788C1.76086 0.82666 0.0478516 2.54017 0.0478516 4.72769C0.0478516 6.7767 1.64086 8.33071 3.78038 8.41271V10.3267C3.78038 10.3807 3.80238 10.4697 3.84038 10.5282C3.91138 10.6407 4.03238 10.7017 4.15638 10.7017C4.22538 10.7017 4.29488 10.6827 4.35738 10.6427C4.48938 10.5587 7.59391 8.57272 8.40141 7.88971C9.35242 7.08471 9.92142 5.9047 9.92292 4.73369V4.72519C9.91992 2.54167 8.20791 0.83166 6.0229 0.83116V0.83166ZM7.91641 7.31771C7.34941 7.79771 5.48539 9.02022 4.53038 9.63922V8.04571C4.53038 7.83871 4.36288 7.67071 4.15538 7.67071H3.95738C2.12737 7.67071 0.798357 6.4327 0.798357 4.72769C0.798357 2.96068 2.18237 1.57667 3.94838 1.57667L6.0219 1.58167H6.0229C7.78891 1.58167 9.17292 2.96468 9.17392 4.72969C9.17242 5.6847 8.70292 6.6517 7.91691 7.31771H7.91641Z" fill="#1D1D1D"/>
</svg>
