<svg width="20" height="17" viewBox="0 0 20 17" fill="none" xmlns="http://www.w3.org/2000/svg">
<path d="M4.58123 14.1534C2.40517 12.7287 1 10.582 1 8.69863C1 5.49796 5.03987 1.5752 10.0263 1.5752C12.0657 1.5752 13.9588 2.22899 15.4811 3.24384" stroke="black" stroke-width="0.73186" stroke-linecap="round" stroke-linejoin="round"/>
<path d="M17.686 5.25488C18.5554 6.35755 19.0619 7.57732 19.0619 8.6995C19.0619 11.9002 15.0123 15.8229 10.0259 15.8229C9.13787 15.8229 8.27037 15.6961 7.45947 15.4716" stroke="black" stroke-width="0.73186" stroke-linecap="round" stroke-linejoin="round"/>
<path d="M7.84603 10.8724C7.26542 10.2977 6.94047 9.51411 6.94338 8.69735C6.9395 6.99456 8.31734 5.61086 10.0211 5.60792C10.8408 5.60598 11.6273 5.93092 12.2069 6.51055" stroke="black" stroke-width="0.73186" stroke-linecap="round" stroke-linejoin="round"/>
<path d="M13.0606 9.24463C12.8323 10.5054 11.8457 11.4939 10.585 11.7251" stroke="black" stroke-width="0.73186" stroke-linecap="round" stroke-linejoin="round"/>
<path d="M17.727 1L2.33447 16.3925" stroke="black" stroke-width="0.73186" stroke-linecap="round" stroke-linejoin="round"/>
</svg>
