<svg width="21" height="29" viewBox="0 0 21 29" fill="none" xmlns="http://www.w3.org/2000/svg">
<path fill-rule="evenodd" clip-rule="evenodd" d="M10.5 27.7347C5.37588 27.7347 1 26.9373 1 23.7439C1 20.5505 5.34812 17.6025 10.5 17.6025C15.6241 17.6025 20 20.5219 20 23.7153C20 26.9074 15.6519 27.7347 10.5 27.7347Z" stroke="#1D1D1D" stroke-width="1.04097" stroke-linecap="round" stroke-linejoin="round"/>
<path fill-rule="evenodd" clip-rule="evenodd" d="M10.4898 13.1775C13.8525 13.1775 16.578 10.4521 16.578 7.08939C16.578 3.72672 13.8525 1 10.4898 1C7.12718 1 4.40043 3.72672 4.40043 7.08939C4.38911 10.4407 7.09564 13.1662 10.4469 13.1775C10.4621 13.1775 10.476 13.1775 10.4898 13.1775Z" stroke="#1D1D1D" stroke-width="1.04097" stroke-linecap="round" stroke-linejoin="round"/>
</svg>
