<svg width="81" height="81" viewBox="0 0 81 81" fill="none" xmlns="http://www.w3.org/2000/svg">
<path fill-rule="evenodd" clip-rule="evenodd" d="M37.07 0.210413C27.4323 1.0383 18.2858 5.29933 12.1881 11.8022C7.87991 16.3965 4.74213 21.7389 2.68823 27.9764C0.941522 33.281 0.266684 37.5217 0.434516 42.1354C0.594399 46.5251 1.28291 49.656 3.09875 54.2503C4.33364 57.3748 6.79455 62.3249 8.24459 64.6011C8.82757 65.5161 9.39816 66.431 9.51257 66.6343C10.3848 68.1838 13.2124 71.438 14.9079 72.8436C17.175 74.723 20.4259 76.8793 22.0059 77.5517C24.6074 78.6589 27.7053 79.6258 29.9268 80.0239C39.2594 81.6963 50.884 80.0195 59.3428 75.7806C64.6966 73.0979 69.8726 68.8988 73.0813 64.6353C76.3757 60.2582 79.0922 54.4004 80.0606 49.586C80.5657 47.0744 80.7594 40.7894 80.4216 37.8694C79.4447 29.4255 76.2605 21.9405 70.6023 14.7877C66.5651 9.68402 62.6667 6.42979 57.3652 3.73802C51.0326 0.522418 45.2128 -0.489008 37.07 0.210413ZM45.4348 2.40553C51.3693 3.03065 57.5821 5.60838 62.5774 9.51822C66.0947 12.2712 70.7934 17.9024 73.5286 22.6433C75.0103 25.2114 76.8226 30.0142 77.6285 33.5087C78.8571 38.837 79.0203 44.5279 78.0773 49.1673C77.3398 52.7955 75.3214 57.4914 72.9928 60.9968L71.8263 62.7528L71.6958 61.7362C71.5853 60.8754 70.8374 57.7463 68.0299 46.3948C67.778 45.3761 67.3265 44.2712 66.7461 43.2525C63.7096 37.9246 62.3002 34.0978 62.3002 31.1818C62.3002 28.7371 61.895 26.1598 60.7838 21.5343C60.2539 19.328 59.9857 17.729 59.8836 16.1662C59.6785 13.0214 58.4732 8.38998 57.6713 7.66431C57.2183 7.25434 55.8936 7.25712 55.0914 7.67004C54.7358 7.85303 53.2793 9.14208 51.8551 10.5346C49.9605 12.3867 49.0674 13.1305 48.528 13.3052C48.1223 13.4364 47.4924 13.6937 47.1279 13.8767C46.5318 14.1763 46.264 14.19 44.4585 14.014C42.778 13.8504 42.0523 13.8722 39.9952 14.1486C37.8742 14.4334 37.3554 14.4463 36.1954 14.2432C34.944 14.024 34.7886 13.9427 33.9278 13.0577C33.2805 12.3924 32.6254 11.3642 31.7416 9.62709C31.0475 8.26281 30.193 6.69854 29.8425 6.15106C29.2224 5.1814 29.1855 5.15682 28.4337 5.21209C27.7733 5.26051 27.6068 5.36217 27.2827 5.91557C26.9388 6.50317 26.8946 6.96951 26.8003 10.9986C26.6896 15.7398 26.5885 16.2884 25.6725 17.1213C25.017 17.7172 24.5912 17.8885 23.1942 18.1181C21.4258 18.4087 20.6937 18.649 20.1775 19.1079C19.5843 19.6356 18.8847 21.2161 17.9361 24.1724C17.3047 26.14 17.0899 26.6084 16.8509 26.5378C15.8545 26.2428 13.1929 25.8659 12.4452 25.9138C11.5776 25.9694 11.5617 25.9816 11.507 26.6356C11.4545 27.2627 11.5583 27.4028 13.3169 29.0748C14.8871 30.5678 15.1532 30.9016 14.9978 31.182C14.8963 31.3653 14.4383 32.6403 13.9799 34.0151C13.0975 36.6624 12.4977 39.8941 12.6814 41.0125C13.2208 44.2987 13.6718 45.7961 14.7324 47.8237C15.9648 50.18 15.9151 50.7273 13.7786 58.3167C13.1662 60.4917 12.9507 63.8629 13.3888 64.4163C13.6413 64.7355 13.7065 64.7483 13.8668 64.5087C13.9688 64.3562 14.0534 63.9703 14.0551 63.6511C14.0605 62.5258 14.6386 60.0301 15.3606 58.0145C15.7624 56.8931 16.0911 55.7745 16.0911 55.5288C16.0911 55.2832 16.1728 55.0821 16.2728 55.0821C16.3728 55.0821 16.6739 54.6453 16.9419 54.1117C17.2101 53.578 17.4613 53.1063 17.5003 53.0635C17.5393 53.0208 17.7727 53.1751 18.0189 53.4063C18.4855 53.8446 18.8636 53.7917 18.8636 53.288C18.8636 53.1267 18.5829 52.5701 18.24 52.0515C17.5592 51.0219 16.5149 48.9832 15.4843 46.672C14.6721 44.8503 13.9535 40.472 14.1191 38.3544C14.2375 36.8406 14.8312 34.439 15.3541 33.3588C15.5562 32.9414 15.7227 32.4392 15.7242 32.2426C15.7308 31.4208 16.0046 31.3927 16.8447 32.1278C17.4056 32.6185 18.0772 32.9682 18.9847 33.242C20.9795 33.8438 21.2035 33.8015 22.7452 32.5328C23.7681 31.691 24.6176 31.533 26.1758 31.8943C27.8326 32.2786 27.8415 32.284 28.4875 33.2906C31.3987 37.8272 40.9717 39.8569 47.6467 37.3529C49.8951 36.5093 52.9545 34.8761 53.031 34.4783C53.1014 34.1127 52.4275 33.4734 51.9494 33.452C51.7969 33.4451 51.4226 33.3281 51.1176 33.1919L50.5631 32.9442L51.2503 32.6457C52.0196 32.3115 53.277 32.2533 53.7905 32.5281C53.9765 32.6276 54.2182 32.9666 54.328 33.2813C54.4378 33.5961 54.6129 33.8009 54.7171 33.7364C55.2374 33.4148 54.5716 31.8548 53.8352 31.6699C53.0249 31.4666 51.1477 31.7949 50.4283 32.2657C50.0494 32.5139 49.592 32.7163 49.4117 32.7154C49.2317 32.7146 47.8022 32.4651 46.2351 32.1609C44.6681 31.8568 43.3691 31.6078 43.3484 31.6078C43.3277 31.6078 43.674 31.2445 44.1182 30.8005C45.0745 29.8439 45.1368 29.3539 44.4504 28.1828C43.8217 27.1102 42.8672 26.2943 42.0645 26.1437C40.1281 25.7805 37.3101 27.2939 36.11 29.3417C35.7316 29.9874 35.5518 30.1371 35.2424 30.0637C35.0276 30.0127 34.3113 29.8696 33.6505 29.7456C32.9898 29.6218 32.4157 29.4924 32.3748 29.4578C32.334 29.4234 32.9593 28.7078 33.7646 27.8677C34.5697 27.0274 36.2804 24.8844 37.5661 23.1054C40.2875 19.3395 40.8119 18.765 42.0606 18.181C43.6132 17.4547 45.2244 17.6743 46.2141 18.7471C46.6244 19.1918 46.6811 19.4473 46.7743 21.2625C46.8351 22.4523 46.9689 23.3743 47.0994 23.5048C47.2214 23.6268 47.6737 23.7739 48.1048 23.8318C48.8471 23.9316 48.9064 23.9859 49.231 24.8613C49.6666 26.0361 49.9716 26.367 50.7546 26.5139C51.5098 26.6555 52.4046 27.3705 52.8199 28.1642C52.9867 28.4824 53.1708 29.2835 53.2293 29.9443C53.3621 31.4433 53.6866 31.4354 53.7607 29.9312C53.8537 28.0423 52.7068 26.3308 51.0492 25.8844C50.2084 25.658 50.0892 25.5267 49.6546 24.351C49.3006 23.393 48.9417 23.1054 48.0998 23.1054C47.4077 23.1054 47.3284 22.8904 47.3281 21.0108C47.3279 19.1763 47.0133 18.448 45.8799 17.6573C45.1755 17.166 44.9289 17.0998 43.8467 17.1113C42.3447 17.1274 41.1871 17.6006 40.1847 18.6081C39.7932 19.0016 38.4334 20.7775 37.1628 22.5546C35.8924 24.3316 34.1688 26.4925 33.3326 27.3566L31.8125 28.9277L31.8074 27.7876C31.8046 27.1605 31.7517 26.516 31.69 26.3552C31.4854 25.8219 30.7575 26.0409 29.7636 26.9344L28.794 27.8063L29.1233 27.1655C29.3047 26.8132 30.017 25.7334 30.7063 24.7661C32.4715 22.2897 33.2809 20.538 33.2809 19.1948C33.2809 18.0856 33.0378 17.2009 32.6685 16.9662C32.5478 16.8893 32.104 16.8254 31.6824 16.8237C30.7351 16.8202 29.484 17.4573 27.0837 19.1652C26.1096 19.8582 24.9915 20.6332 24.5989 20.8873C23.9908 21.281 23.4648 22.1812 23.8428 22.1812C23.9964 22.1812 24.9621 21.5344 27.3944 19.8033C29.3159 18.4355 31.2554 17.3758 31.8379 17.3756C32.3136 17.3754 32.7264 18.1089 32.7264 18.9547C32.7264 20.4251 32.0314 21.7725 29.2503 25.6931C28.9258 26.1505 28.5003 26.9823 28.3045 27.5414C28.109 28.1006 27.8594 28.5497 27.75 28.5396C27.6404 28.5294 27.2805 28.4989 26.9502 28.4719C26.6199 28.4449 26.4835 28.3869 26.6473 28.3433C27.7092 28.0593 27.504 25.0546 26.3434 23.8941C25.856 23.4066 25.592 23.2902 24.9743 23.2902C24.5535 23.2902 23.8949 23.4505 23.5108 23.6466C22.7297 24.0449 21.4513 25.3663 21.4513 25.7751C21.4513 26.3328 21.8765 26.2646 22.4062 25.6219C23.5466 24.2382 25.5177 23.5754 25.5177 24.5756C25.5177 25.3262 25.1769 25.8504 24.6494 25.911C24.1544 25.9677 24.1315 26.0138 24.1315 26.955C24.1315 27.9058 24.1158 27.9364 23.6694 27.8497C23.4152 27.8004 22.5628 27.6531 21.7748 27.5222C20.4865 27.3085 20.3423 27.2429 20.3423 26.8716C20.3423 25.8724 19.4283 25.6868 18.5106 26.4999C18.082 26.8795 18.0701 26.8806 18.2001 26.5248C19.9222 21.8117 20.2392 21.2052 21.5743 20.0694C22.0308 19.6809 22.5763 19.4203 23.1071 19.3367C23.5601 19.2654 24.3087 19.0401 24.7706 18.8358C25.5821 18.4771 26.6268 17.6403 26.6268 17.349C26.6268 17.271 26.8245 16.9156 27.0663 16.5592C27.3081 16.203 27.6947 15.1472 27.9256 14.2131C28.308 12.6651 28.3241 12.4146 28.1067 11.3869C27.8447 10.1474 27.5883 7.11664 27.7031 6.61481C27.8153 6.12426 28.4635 6.00651 28.8607 6.40447C29.0489 6.593 29.5788 7.65784 30.0385 8.77093C30.4982 9.88383 31.1662 11.2342 31.5231 11.7716C31.9393 12.3985 32.1702 12.9652 32.167 13.3525C32.163 13.8676 32.0613 14.0025 31.4722 14.2733C30.6453 14.6537 28.7117 16.1934 28.3335 16.7725C28.0934 17.1401 28.0964 17.1987 28.3613 17.3004C28.679 17.4224 29.9769 16.671 31.4954 15.4859C32.5044 14.6983 33.174 14.6064 34.6551 15.0522C36.1693 15.5078 37.6828 15.5727 39.5653 15.2629C42.3403 14.8064 44.7407 14.896 44.7407 15.4563C44.7407 15.5968 44.8969 15.7119 45.0879 15.7119C45.5124 15.7119 49.2759 14.1205 49.9162 13.6702C50.1703 13.4917 51.3348 12.3739 52.5039 11.1866C54.6975 8.95872 55.7631 8.20662 56.4531 8.39922C56.8695 8.51567 57.7087 10.0844 58.1643 11.5986C58.4181 12.442 58.7833 17.4106 58.7865 20.0639C58.7877 21.0675 58.9449 22.149 59.2702 23.3909C59.665 24.8983 59.7356 25.5049 59.6609 26.7463C59.5537 28.5294 59.3212 28.9806 57.6885 30.5731C56.6403 31.5956 56.2666 32.3472 56.8063 32.3472C56.9362 32.3472 57.2148 32.2265 57.4253 32.079C58.1868 31.5457 59.8685 30.6837 60.1476 30.6837C60.6557 30.6837 61.376 31.847 61.376 32.6675C61.376 33.9883 62.1529 36.4062 64.4206 42.1435C66.6984 47.9056 68.1676 52.5237 68.5005 54.9667C68.5715 55.4876 68.8647 56.6792 69.1519 57.6145C69.7534 59.5736 70.0058 60.8554 70.2138 63.0047L70.3615 64.5333L69.2667 65.7281C65.6727 69.6503 59.1746 73.8365 53.8121 75.6841C48.5046 77.5129 43.2761 78.3798 37.5463 78.3807C29.1866 78.3824 22.7798 76.3458 17.7884 72.1007C16.943 71.3815 16.1419 70.7932 16.0083 70.7932C15.5443 70.7932 12.4792 67.3524 11.0641 65.2431C9.49723 62.9075 6.7428 57.7796 5.55097 54.9791C4.49648 52.5016 3.43367 49.2446 2.96105 47.0417C2.40062 44.4292 2.26088 39.4671 2.66956 36.6833C5.10811 20.0705 15.8035 7.42107 30.6479 3.59347C35.1847 2.42365 41.0982 1.94862 45.4348 2.40553ZM55.2572 10.4903C54.3997 12.0067 52.921 13.9393 51.203 15.7892C48.8912 18.2785 48.8567 18.5974 50.7023 20.4056C51.7048 21.3879 52.2717 22.1525 52.9512 23.4384C54.6049 26.5685 55.8819 26.9191 56.4047 24.3863C56.5185 23.8344 56.6305 21.2407 56.6533 18.6231L56.6947 13.8635H56.2703C55.9958 13.8635 55.5328 14.2025 54.9603 14.8228C54.4735 15.3506 53.7619 16.1104 53.3791 16.5115C52.9963 16.9128 52.6329 17.4409 52.5715 17.6852C52.4307 18.2469 52.946 18.8541 53.5637 18.8541C53.9668 18.8541 53.9996 18.9107 53.8885 19.4162C53.7615 19.9944 54.0609 20.6053 54.3759 20.4106C54.6439 20.245 55.0916 19.0386 55.0916 18.4819C55.0916 18.0854 54.9838 17.9429 54.6132 17.8499C54.2223 17.7518 54.1752 17.6813 54.3554 17.4642C54.6689 17.0864 55.1875 17.4093 55.5736 18.2231C55.8392 18.7828 55.8671 19.231 55.7607 21.2243C55.6917 22.513 55.5492 23.8874 55.4439 24.2785C55.2566 24.9742 55.2446 24.9822 54.8844 24.6561C54.6818 24.473 54.1722 23.654 53.7519 22.8362C53.207 21.7764 52.5991 20.9631 51.6348 20.0038C50.3045 18.6806 50.2864 18.6499 50.5453 18.1554C50.6903 17.8789 51.1146 17.3616 51.4886 17.0058C52.4353 16.1047 54.3291 13.8096 55.2685 12.4251C55.9252 11.4572 56.1013 11.3015 56.3274 11.4891C56.5429 11.6681 56.6329 11.6597 56.7664 11.4488C56.9928 11.091 56.9836 10.2239 56.7486 9.78494C56.3958 9.12563 55.8949 9.3624 55.2572 10.4903ZM26.331 25.9888C26.5602 26.0768 26.5783 26.1775 26.4186 26.4759C26.2569 26.7782 26.1856 26.8017 26.0552 26.596C25.8869 26.3302 25.8299 25.8779 25.9647 25.8779C26.0072 25.8779 26.1721 25.9278 26.331 25.9888ZM19.7878 26.8945C19.7878 27.2074 19.7555 27.2187 19.3254 27.0537C19.0797 26.9594 19.0673 26.9039 19.264 26.7792C19.6283 26.5483 19.7878 26.5834 19.7878 26.8945ZM31.1972 27.9257C31.141 28.5436 31.0671 29.0769 31.0329 29.1103C30.9148 29.2259 29.0296 28.7861 29.0296 28.6431C29.0296 28.4397 30.8789 26.8021 31.1085 26.8021C31.2296 26.8021 31.2619 27.2117 31.1972 27.9257ZM42.4029 27.3777L42.855 27.5838L42.5042 28.1782C42.0308 28.9804 41.3264 29.3549 40.8503 29.0575C40.6546 28.9353 40.327 28.8353 40.1224 28.8353C39.8215 28.8353 39.7501 28.9571 39.7501 29.4702C39.7501 29.8194 39.8267 30.3062 39.9202 30.5522L40.0901 30.9994L38.5801 30.7275C37.7495 30.5779 36.9974 30.3885 36.9087 30.3066C36.6883 30.1033 37.3798 29.1719 38.2807 28.4584C39.6476 27.3756 41.3937 26.918 42.4029 27.3777ZM14.8684 27.9921C14.7207 28.3771 14.2446 28.5006 14.1235 28.1852C14.0656 28.0344 14.0675 27.7828 14.1278 27.6259C14.2131 27.4035 14.3178 27.3838 14.6028 27.5363C14.8067 27.6453 14.9242 27.847 14.8684 27.9921ZM17.2796 28.4447C17.3352 28.5347 17.257 28.7113 17.1057 28.837C16.8766 29.0272 16.8304 28.9996 16.8304 28.673C16.8304 28.2765 17.0931 28.1429 17.2796 28.4447ZM20.2209 28.514C20.4985 28.717 20.5065 28.793 20.283 29.0985C19.9734 29.5218 19.4196 29.3743 19.5111 28.893C19.546 28.7087 19.581 28.4956 19.5887 28.4194C19.6098 28.2135 19.8614 28.251 20.2209 28.514ZM22.5604 29.0177C22.8955 29.2312 22.6105 29.816 22.1247 29.9116C21.8959 29.9567 21.821 29.8312 21.821 29.4033C21.821 28.8185 22.0558 28.6961 22.5604 29.0177ZM43.3105 29.2512C43.3587 29.3783 43.3253 29.6789 43.236 29.9192C43.1014 30.2809 43.026 30.3168 42.7981 30.1277C42.5129 29.8909 42.4306 29.3588 42.646 29.1434C42.8465 28.9427 43.2158 29.0026 43.3105 29.2512ZM17.6731 29.9621C17.8685 30.2781 17.2522 30.8097 16.992 30.5495C16.8761 30.4336 16.8314 30.2084 16.8925 30.0491C17.0204 29.7159 17.4886 29.6635 17.6731 29.9621ZM19.8802 30.8685C19.8802 31.004 19.7764 31.1496 19.6492 31.192C19.5117 31.2378 19.4181 31.1067 19.4181 30.8685C19.4181 30.6302 19.5117 30.4992 19.6492 30.545C19.7764 30.5874 19.8802 30.733 19.8802 30.8685ZM31.0628 30.7761C31.2464 30.9973 31.2464 31.1093 31.0628 31.3306C30.7163 31.7481 30.3235 31.6664 30.3235 31.1766C30.3235 30.4779 30.6629 30.2942 31.0628 30.7761ZM34.5415 31.8452C34.7906 32.1452 34.5921 32.4758 34.1126 32.5597C33.8269 32.6098 33.7297 32.5091 33.6846 32.1161C33.6383 31.716 33.7023 31.6078 33.9853 31.6078C34.1829 31.6078 34.4331 31.7147 34.5415 31.8452ZM37.5321 32.6333C37.5321 32.9806 37.1674 33.1655 36.9369 32.935C36.661 32.659 36.9037 32.1455 37.2478 32.2777C37.4042 32.3376 37.5321 32.4976 37.5321 32.6333ZM39.1032 32.7169C39.1032 32.8523 38.9993 32.998 38.8722 33.0403C38.7347 33.0862 38.6411 32.9551 38.6411 32.7169C38.6411 32.4786 38.7347 32.3476 38.8722 32.3934C38.9993 32.4357 39.1032 32.5814 39.1032 32.7169ZM32.2743 32.9178C32.4646 33.2261 32.0364 33.5795 31.7813 33.3244C31.568 33.1111 31.7014 32.7169 31.987 32.7169C32.0767 32.7169 32.2059 32.8072 32.2743 32.9178ZM42.153 32.9941C42.3366 33.2154 42.3366 33.3274 42.153 33.5486C41.6911 34.1052 41.0327 33.6793 41.2957 32.9941C41.3542 32.8416 41.5192 32.7169 41.6625 32.7169C41.8057 32.7169 42.0264 32.8416 42.153 32.9941ZM45.1104 33.5486C45.2939 33.7699 45.2939 33.8819 45.1104 34.1031C44.7638 34.5207 44.3711 34.439 44.3711 33.9492C44.3711 33.2505 44.7104 33.0668 45.1104 33.5486ZM22.2619 33.7978C21.7419 33.9658 21.1462 34.2279 20.9377 34.3804C20.7294 34.5329 20.0527 35.6327 19.434 36.8245C18.1936 39.2137 18.0298 40.1111 18.649 41.1269C18.9756 41.6628 18.9756 41.7062 18.652 42.4208C18.4679 42.8274 18.3154 43.3791 18.3132 43.6468C18.3084 44.2155 20.7423 47.6065 21.587 48.2082C22.5173 48.8706 23.6686 49.0422 26.4094 48.9268C29.2049 48.8091 29.769 48.7026 29.769 48.2925C29.769 48.0599 29.5673 48.0372 28.5213 48.1507C26.7517 48.3429 23.5093 48.2769 22.7452 48.0331C22.3894 47.9197 21.9434 47.6917 21.7541 47.5267C21.2447 47.0827 18.8636 43.8754 18.8636 43.6333C18.8636 43.5187 19.0753 43.0074 19.3339 42.4971L19.8041 41.5692L19.3339 41.0105C19.039 40.66 18.8636 40.2253 18.8636 39.8445C18.8636 39.2479 19.759 37.315 20.0841 37.2097C20.3155 37.1348 21.0582 38.4856 21.3785 39.5638C21.7323 40.7554 21.8606 40.8306 23.6588 40.9022C24.6538 40.9417 24.6714 40.933 25.23 40.1321C25.5408 39.6869 26.4397 38.6847 27.2275 37.9056C28.498 36.6489 28.66 36.4117 28.66 35.8084C28.66 34.9473 28.3043 34.7009 26.0349 33.9893C24.1195 33.3887 23.6086 33.3629 22.2619 33.7978ZM36.1261 34.0678C36.2898 34.3353 36.259 34.4552 35.9719 34.6685C35.5113 35.0105 35.3801 35.004 35.2372 34.6316C34.9239 33.8148 35.6782 33.3362 36.1261 34.0678ZM47.9863 33.9185C48.3384 34.1906 48.3369 34.2028 47.9086 34.5654C47.3179 35.0658 47.1436 35.0306 47.1436 34.4113C47.1436 33.6011 47.3896 33.4571 47.9863 33.9185ZM38.8056 34.6331C38.9653 34.8257 38.9468 34.9427 38.728 35.1244C38.3748 35.4175 37.9805 35.1085 38.1487 34.67C38.2857 34.3133 38.5288 34.2996 38.8056 34.6331ZM33.9278 34.9349C33.9278 35.0704 33.8239 35.216 33.6968 35.2584C33.5592 35.3042 33.4657 35.1731 33.4657 34.9349C33.4657 34.6966 33.5592 34.5656 33.6968 34.6114C33.8239 34.6538 33.9278 34.7994 33.9278 34.9349ZM42.8049 35.1279C42.9541 35.3691 42.5639 35.8591 42.2229 35.8591C42.0745 35.8591 41.9682 35.6663 41.9682 35.397C41.9682 35.0628 42.0674 34.9349 42.327 34.9349C42.5244 34.9349 42.7393 35.0218 42.8049 35.1279ZM37.5979 35.9543C37.4606 36.3121 37.2308 36.304 37.0898 35.9363C36.8894 35.4142 36.9621 35.2833 37.3404 35.4857C37.5536 35.5999 37.6598 35.7931 37.5979 35.9543ZM45.2814 35.5652C45.4531 35.772 45.4106 35.8868 45.076 36.1212C44.6856 36.3945 44.6455 36.3923 44.5382 36.0916C44.2934 35.4057 44.8322 35.024 45.2814 35.5652ZM56.8133 35.789C56.7361 35.9903 56.9172 36.2787 57.3651 36.667C57.853 37.0903 58.1113 37.5285 58.329 38.3021C58.6105 39.3031 58.6075 39.4007 58.2735 40.156C58.0796 40.5944 57.3649 41.6992 56.6851 42.6112C56.0054 43.5229 55.0356 45.1009 54.53 46.1175C53.958 47.2683 53.1231 48.5483 52.3181 49.5091C51.1331 50.9234 50.8352 51.5034 51.1385 51.8068C51.5789 52.2472 54.2484 49.0239 55.374 46.6923C55.8211 45.7661 56.7804 44.2183 57.5059 43.2525C59.4872 40.6153 59.5541 40.4009 59.2957 37.5226C59.2452 36.9607 57.7917 35.4894 57.2869 35.4894C57.0897 35.4894 56.8765 35.6243 56.8133 35.789ZM40.4777 36.0326C40.6976 36.1718 40.7015 36.2504 40.5011 36.492C40.191 36.8657 39.8209 36.8646 39.677 36.4894C39.4637 35.9338 39.9147 35.6765 40.4777 36.0326ZM30.0836 38.0089C29.9093 38.1832 30.3139 38.8442 30.5176 38.7183C30.7841 38.5536 30.7274 37.8923 30.4468 37.8923C30.3111 37.8923 30.1477 37.9448 30.0836 38.0089ZM27.4084 39.7754C27.5227 40.1181 27.9206 40.1748 27.9206 39.8484C27.9206 39.6876 27.7888 39.5558 27.628 39.5558C27.467 39.5558 27.3681 39.6545 27.4084 39.7754ZM32.1719 40.365C32.1719 40.6785 32.623 41.0763 32.7896 40.9097C33.0641 40.6353 32.9012 40.1103 32.5415 40.1103C32.3382 40.1103 32.1719 40.2249 32.1719 40.365ZM26.477 41.5428C26.5114 41.7208 26.6619 41.8663 26.8116 41.8663C26.9613 41.8663 27.1118 41.7208 27.1462 41.5428C27.1898 41.3158 27.09 41.2193 26.8116 41.2193C26.5332 41.2193 26.4334 41.3158 26.477 41.5428ZM29.8718 41.3875C29.7122 41.6456 29.962 42.1435 30.2508 42.1435C30.4022 42.1435 30.5083 41.9531 30.5083 41.6814C30.5083 41.2275 30.09 41.0343 29.8718 41.3875ZM22.123 42.4731C21.9303 42.7849 22.2016 43.2496 22.6269 43.3363C22.8445 43.3804 23.6047 43.4525 24.3163 43.4961C25.0279 43.54 26.1092 43.7608 26.7192 43.9869C30.4427 45.3671 30.3529 45.3447 32.2643 45.3617C33.9359 45.3767 34.2577 45.3207 35.6316 44.7774C36.4669 44.4471 37.3926 44.1767 37.6883 44.1767C38.3105 44.1767 38.7348 43.7632 38.5653 43.3218C38.3916 42.8688 36.8027 43.0869 35.0148 43.8094C33.6744 44.3512 33.4328 44.3911 31.987 44.3105C30.6906 44.2383 30.012 44.0697 28.1055 43.3461C26.0987 42.5844 25.5616 42.4568 24.0184 42.3753C22.8901 42.3156 22.1983 42.3513 22.123 42.4731ZM56.7394 52.1548C55.884 52.6796 54.3574 53.4766 53.3471 53.9257C52.337 54.3749 51.1573 54.9852 50.7261 55.2819C50.2949 55.5787 49.8126 55.8214 49.6546 55.8214C49.4966 55.8214 48.9709 56.0652 48.4865 56.3632C46.1586 57.7951 43.002 58.6842 39.3271 58.9429C35.6795 59.1998 34.5391 59.8255 34.2971 61.7029C34.0999 63.2339 33.7714 63.7056 32.2181 64.6884C31.4301 65.1869 30.7024 65.692 30.6007 65.8109C30.4991 65.9299 30.1422 66.2976 29.8074 66.6282C29.4729 66.9587 29.1115 67.5465 29.0043 67.9343C28.8274 68.5749 28.8492 68.6699 29.2431 68.9729C29.7749 69.3819 30.537 69.3973 32.4192 69.0372C33.216 68.8847 33.9478 68.76 34.0454 68.76C34.308 68.76 33.1975 70.3054 32.533 70.8643C32.2171 71.1301 31.8441 71.3477 31.7042 71.3477C31.2619 71.3477 30.5083 71.7671 30.5083 72.0133C30.5083 72.423 30.8015 72.4565 31.638 72.1425C32.59 71.785 33.4615 71.0216 34.2171 69.8836C35.4237 68.0659 34.5962 67.6047 31.5334 68.3881C30.7431 68.5903 30.0228 68.7101 29.9327 68.6544C29.8427 68.5988 29.769 68.3589 29.769 68.1212C29.769 67.6611 31.634 65.8821 32.9496 65.0871C33.9054 64.5096 34.5411 63.6949 34.6673 62.886C34.9281 61.2136 35.1172 60.8344 35.9209 60.3723C36.8837 59.8187 37.1852 59.7606 40.3546 59.5191C42.1087 59.3852 43.3726 59.1784 44.421 58.8533C46.6128 58.1738 49.9446 56.6624 51.3431 55.7133C51.6723 55.4898 52.6438 55.0131 53.5018 54.654C54.3596 54.2948 55.5866 53.6673 56.2281 53.2594C56.8697 52.8515 57.4222 52.5452 57.4558 52.5788C57.4895 52.6125 57.0043 53.6627 56.3779 54.9126C55.3119 57.0387 55.26 57.2007 55.5701 57.4275C56.0529 57.7805 56.3024 57.7385 57.9628 57.0254C59.8971 56.1946 61.9956 55.7624 63.6436 55.8556C64.8093 55.9214 64.9801 55.9831 65.4478 56.5064C66.1335 57.274 66.4526 58.7721 66.1845 59.9675C65.8444 61.4857 65.2872 62.2801 62.8832 64.6741C60.5049 67.0428 59.2818 68.7431 59.0437 70.0126C58.9523 70.5007 59.016 70.7226 59.3508 71.0787C59.7635 71.5183 59.7654 71.5375 59.4308 71.907C59.0861 72.2879 58.9168 73.0112 59.1724 73.0112C59.4454 73.0112 60.267 71.8648 60.267 71.4841C60.267 71.2697 60.0944 70.9105 59.8835 70.6861L59.5001 70.2778L59.9088 69.4727C60.6971 67.9199 61.4488 66.9859 63.6144 64.8695C66.3281 62.2173 66.82 61.324 66.8152 59.056C66.81 56.6336 65.9326 55.4009 64.0462 55.1652C62.6823 54.9948 59.8633 55.4885 58.0772 56.2103C57.2993 56.5247 56.556 56.8254 56.4257 56.8783C55.9884 57.0559 56.925 55.0503 58.0621 53.3742C58.6648 52.4857 59.158 51.6332 59.158 51.4796C59.158 50.9552 58.3079 51.1926 56.7394 52.1548ZM46.4361 53.4158C45.1535 54.2041 43.3256 54.7107 41.7469 54.7152C40.5418 54.7185 39.2494 55.0172 35.7804 56.0942C30.6237 57.6953 28.1604 57.5579 24.3163 55.4551C23.6047 55.0658 22.7234 54.6665 22.358 54.5678C21.6574 54.3786 21.0776 54.5542 21.0868 54.9527C21.0944 55.2821 22.0303 56.1253 22.5604 56.2804C22.8145 56.3547 23.4954 56.7824 24.0736 57.2306C24.6518 57.6788 25.563 58.2487 26.0989 58.4969C27.0561 58.9405 28.2042 59.0463 31.7098 59.0141C32.5681 59.0061 33.8581 58.5908 37.4153 57.1772C38.825 56.6168 40.6133 56.0412 41.3893 55.8977C42.1652 55.7545 43.299 55.5469 43.909 55.4364C44.969 55.2445 46.92 54.3503 47.8656 53.623C48.1512 53.4034 48.2691 53.1733 48.1948 52.9801C48.0269 52.5424 47.7416 52.613 46.4361 53.4158ZM17.9879 56.545C18.1086 57.4458 19.0296 58.8108 19.9346 59.4302C20.3113 59.6882 21.0735 60.0323 21.6284 60.195C22.1842 60.358 22.8692 60.7227 23.1533 61.007C23.618 61.4715 23.6694 61.6495 23.6694 62.792C23.6694 63.696 23.7757 64.2694 24.0391 64.786C24.4627 65.617 24.4945 66.0466 24.1976 66.9303C23.9235 67.7467 23.5491 68.1648 22.7064 68.5947C21.8042 69.0551 21.4037 69.0363 20.7706 68.5036C20.4821 68.2609 19.6797 67.7509 18.9873 67.3704C17.7807 66.7072 17.6777 66.6835 16.5088 66.8033C15.1031 66.9473 14.888 67.0377 15.1627 67.3685C15.3035 67.5384 15.7037 67.5802 16.5432 67.5127C17.6518 67.4238 17.7979 67.46 18.8951 68.0984C19.5387 68.4729 20.3477 68.9829 20.6931 69.2317C21.4887 69.8048 21.8857 69.8 23.0849 69.2025C24.217 68.6382 24.754 67.7772 24.9087 66.277C24.986 65.529 24.922 65.1525 24.6157 64.5522C24.3398 64.0113 24.2237 63.4402 24.2232 62.6215C24.2224 61.1597 23.7855 60.376 22.6951 59.8812C22.2652 59.686 21.7842 59.5244 21.6262 59.5222C20.6187 59.508 18.494 57.2866 18.494 56.2473C18.494 55.9767 18.384 55.8214 18.1923 55.8214C17.9483 55.8214 17.9093 55.9595 17.9879 56.545Z" fill="#1D1D1D"/>
</svg>
