<svg width="12" height="12" viewBox="0 0 12 12" fill="none" xmlns="http://www.w3.org/2000/svg">
<path fill-rule="evenodd" clip-rule="evenodd" d="M6.05798 0.443256C6.19977 0.301467 6.42965 0.301467 6.57144 0.443256L9.17714 3.04896C9.35438 3.22619 9.35438 3.51355 9.17714 3.69079C8.99991 3.86802 8.71255 3.86802 8.53531 3.69079L6.76855 1.92403V7.36369C6.76855 7.61434 6.56536 7.81753 6.31471 7.81753C6.06406 7.81753 5.86087 7.61434 5.86087 7.36369V1.92403L4.09411 3.69079C3.91687 3.86802 3.62951 3.86802 3.45228 3.69079C3.27504 3.51355 3.27504 3.22619 3.45228 3.04896L6.05798 0.443256ZM1.23167 6.1837C1.48232 6.1837 1.68552 6.38689 1.68552 6.63754V9.54213C1.68552 9.89304 1.96999 10.1775 2.3209 10.1775H10.3085C10.6594 10.1775 10.9439 9.89304 10.9439 9.54213V6.63754C10.9439 6.38689 11.1471 6.1837 11.3977 6.1837C11.6484 6.1837 11.8516 6.38689 11.8516 6.63754V9.54213C11.8516 10.3943 11.1607 11.0852 10.3085 11.0852H2.3209C1.46869 11.0852 0.777832 10.3943 0.777832 9.54213V6.63754C0.777832 6.38689 0.981024 6.1837 1.23167 6.1837Z" fill="#1D1D1D"/>
</svg>
