<svg width="30" height="29" viewBox="0 0 30 29" fill="none" xmlns="http://www.w3.org/2000/svg">
<path d="M7.80225 18.5545L12.0244 13.0684L16.8405 16.849L20.9724 11.5166" stroke="black" stroke-width="1.05802" stroke-linecap="round" stroke-linejoin="round"/>
<path fill-rule="evenodd" clip-rule="evenodd" d="M25.7885 0.915039C27.2866 0.915039 28.4998 2.12823 28.4998 3.62638C28.4998 5.12312 27.2866 6.33772 25.7885 6.33772C24.2903 6.33772 23.0771 5.12312 23.0771 3.62638C23.0771 2.12823 24.2903 0.915039 25.7885 0.915039Z" stroke="black" stroke-width="1.05802" stroke-linecap="round" stroke-linejoin="round"/>
<path d="M27.324 10.6761C27.5117 11.9386 27.5977 13.3606 27.5977 14.9561C27.5977 24.7434 24.3362 28.0049 14.5489 28.0049C4.76292 28.0049 1.5 24.7434 1.5 14.9561C1.5 5.17015 4.76292 1.90723 14.5489 1.90723C16.1147 1.90723 17.5127 1.99046 18.7569 2.17103" stroke="black" stroke-width="1.05802" stroke-linecap="round" stroke-linejoin="round"/>
</svg>
